<svg xmlns="http://www.w3.org/2000/svg" viewBox="-200 0 400 400" height="500px" width="500px">
  <rect class="polar-box" ry="0" x="-200" height="400" width="400" fill="none" />
  <path id="polar" d="M-134.303 113.99c3.393-.907 5.483-.51 7.303.159l4.536-.756c2.8-6.908 4.123-14.925 9.827-19.655 6.804-6.71 13.607-6.69 20.41-9.071-1.412-4.406 1.347-5.475 3.78-6.804 3.988-.912 4.34.904 5.292 2.268 7.012-1.555 12.057.211 30.994-9.827 18.938-10.039 22.791-12.677 34.774-15.875C-5.404 51.23 3.04 52.546 12.095 52.16c23.38-1.56 47.145-16.782 73.328-15.875 26.183.906 31.017 5.77 37.797 12.85l8.177 12.096c11.454 2.694 13.358 9.208 12.99 16.631-1.478 3.446-3.802 2.661-6.048 2.268 13.416 25.053 4.536 47.877 6.804 71.815.755 10.08 5.17 17.233 9.827 24.19 3.874 2.439 5.39 4.405 5.292 6.049-8.235 27.704-34.052 29.168-38.554 24.946-4.334-4.874-2.52-7.992-1.512-11.34-3.206-7.394-9.57-10.842-15.875-14.362-6.988 4.496-10.247 11.479-15.119 17.386-9.994 3.103-18.8.266-27.214-4.535 0 0 .019-5.925 3.798-8.022 7.617-4.227 2.705-21.353 4.518-30.532-37.039 3.08-37.698-.229-49.893-1.512-3.54 23.461 1.997 27.255 3.024 40.822-6.128 5.726-13.46 6.64-21.167 6.047-5.796-8.063-9.85-19.61-17.387-24.19-8.403 13.667-16.477 28.056-28.726 33.262-11.263 1.917-19.193-2.275-25.703-9.072-1.965-4.418 1.138-5.457 3.78-6.803 10.707-11.647 17.387-47.625 17.387-47.625 3.351-7.684-7.276-6.927-21.167-4.536-13.89 2.39-33.154 4.117-44.6 1.512-7.178-.611-19.645-2.275-16.47-10.473-2.552-1.268-2.831-6.588-2.403-8.604-1.508-4.635-6.418-7.406-1.282-10.565z" fill="#f8f8f8"/>
  <g id="toy-bear" class="polar-icon">
    <path d="M23.505 314.448s1.813 5.837-5.012.911c-3.8-4.351-.03-11.151 1.139-12.759 1.169-1.608 5.468-2.05 5.468-2.05.035-4.99 3.203-7.89 6.835-10.481-.374-7.147 4.175-4.67 5.924-2.734 12.78-4.418 19.559 1.45 28.48 3.645-.121-2.89-1.229-5.891 3.874-8.202 6.49-1.901 7.223 2.914 10.48 4.785 12.882 2.756 13.215 11.9 12.532 18.455 4.694 5.76 1.139 9.674-3.646 9.113-4.019 15.224-15.152 8.075-12.179 4.52-2.91 1.496-6.486.854-8.56-.296.012 3.038-5.284 4.602-7.222-1.021-8.417 3.851-12.614 1.208-16.24-.696-4.457 2.732-7.964 6.605-15.265 5.923-3.29-1.506-6.608-9.113-6.608-9.113z" fill="#f2e9e9"/>
    <path d="M25.1 300.55c-.045 5.167.662 8.36 2.279 10.936M45.378 317.638c-1.349-4.017-4.01-7.47 5.714-12.88M62.746 295.36c-1.758 3.265-4.022 6.615-3.976 9.774.11 7.432 8.412 15.755 15.21 15.385 4.794-.261 9.047-6.595 13.24-6.003" fill="none" stroke="#dbd2d2" stroke-width=".565"/>
    <path d="M67.698 301.637c-.4 1.764.81 3.949 2.039 4.695M72.642 310.247c.58 1.512 3.05 2.168 4.866 2.238" fill="none" stroke="#978c8c" stroke-width=".565"/>
    <path d="M66.763 314.706c-.36-.506-.402-1.385-.133-2.601-.888.288-1.776.348-2.664-.053" fill="none" stroke="#beb6b6" stroke-width=".465"/>
    <path d="M68.278 310.733c.004-.999.568-1.998-.95-1.982-1.79.6-.291 1.73-.698 3.354 1.312.105 2.69.93 3.19.146.542-.849.418-1.412-1.542-1.518z" fill="#ea8080"/>
    <path d="M75.406 312.322l.295 1.181M76.39 312.518l.345.985" fill="none" stroke="#978c8c" stroke-width=".265"/>
    <path d="M77.508 312.485h0" fill="none" stroke="#000" stroke-width=".265"/>
    <path d="M67.43 302.918l-1.33-.394M67.698 301.937l-1.352-.393M67.626 303.951l-1.181-.344M77.208 312.485l.605 1.018" fill="none" stroke="#978c8c" stroke-width=".265"/>
  </g>
  <path d="M-111.48 112.252c-.21-6.354 6.471-4.843 8.252-.44-2.169 5.02-8.044 6.794-8.253.44zM-127 114.149c.688 5.383-2.308 11.11-6.021 10.405-8.727-8.294-1.154-12.976 6.021-10.405z" fill="#1c1c1c" stroke="#000" stroke-width=".265"/>
  <path d="M-130.618 133.158c5.015.928 9.13.505 11.432-2.636" fill="none" stroke="#000" stroke-width=".265"/>
  <ellipse id="nose" class="polar-icon" ry="11.047" rx="10.691" cy="267.444" cx="-116.38" fill="#f83f3f"/>
  <g id="glasses" class="polar-icon" transform="translate(36.59 153.382)" fill="none" stroke="#e9af13">
    <ellipse ry="11.097" rx="7.59" cy="113.657" cx="-107.441" stroke-width="2.851"/>
    <path d="M-122.464 112.864c.831-2.44 2.182-1.46 7.022 2.515" stroke-width="1.465"/>
    <path d="M-73.992 112.29c-2.045-7.624-15.148-.558-22.48.973-2.674.559-1.941.501-2.674.559" stroke-width="2.465"/>
  </g>
  <path id="mustache" class="polar-icon" d="M-18.933 268.19c3.45-4.163 8.306-4.765 13.909-2.228 5.603 2.536 13.241-1.43 18.702-1.52-6.056 4.859-15.622 10.04-21.793 8.876-6.172-1.164-9.502-2.677-10.818-5.127z" fill="#6c4d41"/>
  <g id="hat" class="polar-icon">
    <path d="M61.523 240.76c-7.717-6.213-12.965 3.8-4.534 6.8z" fill="#cf7abc"/>
    <path d="M58.388 236.37c-3.54 9.217-5.997 18.506-7.568 27.853l-8.528 4.785c3.65 13.62 50.243 13.343 55.885 6.108l-7.648-8.715c.027-9.31-.372-18.238-2.304-27.676-2.378-4.455-27.643-5.511-29.837-2.356z" fill="#7f2e53"/>
    <path d="M80.04 242.267c10.513-7.898 17.663 4.83 6.176 8.645z" fill="#cf7abc"/>
    <path d="M55.714 252.399c.217 2.932 1.172 3.16 3.08 1.828M67.78 254.441c-1.405 2.794-6.09 2.702-5.78.04" fill="none" stroke="#cf7abc" stroke-width=".4"/>
    <path d="M58.96 258.528s-.058-1.466-1.61-1.087c-1.55.378-.305 2 .606 3.633 1.797-.597 4.092-.986 3.737-2.273-.354-1.287-1.26-1.223-2.732-.273z" fill="#cf7abc"/>
    <path d="M54.964 258.675c-.879 2.653 3.072 3.038 3.528 1.703" fill="none" stroke="#cf7abc" stroke-width=".405"/>
    <path d="M58.294 260.325c-1.018 3.237 3.558 3.707 4.086 2.078" fill="none" stroke="#cf7abc" stroke-width=".482"/>
    <path d="M65.612 256.194l1.043 1.472M66.839 255.765l.858 1.104M67.633 254.563l1.193 1.141M55.826 252.492l-1.263.546M55.758 253.368l-.907.348M55.932 254.17l-.732.279" fill="none" stroke="#cf7abc" stroke-width=".265"/>
  </g>
  <path id="bow" class="polar-icon" d="M126.182 250.348c3.291 5.787-4.74 14.827-.912 21.405 1.317-6.127 12.104-6.718 12.121-12.14.419 2.608 4.243 3.89 5.858.132 1.674 7.058 10.853 9.155 12.652 18.723 9.117-1.575-2.094-27.98 2.333-36.297-3.672-2.448-12.558 9.244-15.003 15.244-1.081-2.353-4.997-2.424-5.765-.443-.433-6.042-8.918-2.763-11.284-6.624z" fill="#cf7abc"/>
  <g id="heart" class="polar-icon">
    <path d="M-25.961 300.365c-2.63-5.082-5.967-12.795-9.2-7.519-3.235 5.276 3.584 25.372 5.737 26.91 4.938-1.204 17.07-17.54 16.324-24.239-.747-6.698-9.92-.4-12.861 4.848z" fill="#f83f3f"/>
    <path d="M-26.121 302.605c-2.2-3.815-4.823-11.568-7.529-7.607-2.705 3.96 2.83 21.008 4.632 22.161 4.131-.903 15.507-16.535 14.882-21.562-.625-5.028-9.525 3.068-11.985 7.008z" fill="#fff"/>
    <path d="M-28.342 314.811c-.078-.075-.168-.14-.236-.225-.172-.214-.348-.428-.482-.668-.574-1.025-.761-1.682-1.09-2.833-.307-1.076-.465-1.85-.705-2.927-.051-.38-.14-.759-.154-1.143-.029-.79.18-1.562.758-2.122.37-.358.293-.336.583-.278.129.044.275.054.386.133.32.226.519.672.641 1.015.195.547.314 1.209.374 1.78.031.303.032.607.049.91-.005.632-.044 1.267-.202 1.88a2.98 2.98 0 01-.214.567c-.03.053-.072.097-.108.145-.035.029-.147.108-.107.085.104-.06.22-.109.303-.196.026-.028-.077.005-.115-.003-.141-.027-.24-.133-.339-.226-.324-.38-.53-.839-.755-1.279-.391-.764-.147-.255-.527-1.088a28.147 28.147 0 01-1.488-4.083c-.07-.292-.162-.581-.195-.881-.01-.084-.025-.178.017-.254.187-.118-.228.132-.34.204-.021.014.049-.023.073-.032.115-.041.234-.057.354-.074.368-.055.598.04.904.238.34.27.522.66.69 1.05.17.398.174.424.326.832.134.421.324.833.392 1.272.025.155.02.255.02.409-.022.24-.057.492-.19.699-.017.022-.031.046-.051.066-.022.02-.099.07-.073.054.103-.06.214-.109.302-.188.033-.03-.086.027-.13.033-.149.021-.179.003-.334-.027-.088-.043-.18-.076-.264-.128-.574-.353-1.028-.922-1.362-1.497-.1-.173-.18-.357-.272-.536a8.913 8.913 0 01-.725-2.587c-.064-.686.047-1.362.233-2.02.149-.395.413-.75.785-.963.023-.013-.075.064-.048.064.128 0 .253-.045.38-.067.147.004.296-.005.443.012.682.077 1.341.391 1.874.818.135.108.254.236.381.354.103.135.22.261.308.407.38.627.544 1.392.527 2.12-.003.158-.027.316-.041.474-.085.656-.359 1.252-.755 1.775-.125.15-.25.309-.395.44a1.08 1.08 0 01-.133.104c.26-.218.3-.157-.08-.166-.855-.212-1.546-.768-2.045-1.486-.175-.251-.316-.524-.474-.786-.803-1.6-1.229-3.35-1.608-5.09a7.663 7.663 0 01-.185-2.226c.01-.14.017-.28.044-.417.025-.124.073-.242.11-.363.195-.395.494-.694.868-.924.043-.027.097-.03.144-.048.61-.218.224-.1.803-.26.3-.056.713-.17.933.127.12.161.145.335.197.525.11.596.112 1.206.13 1.81.017.553.024.63.053 1.194.01.932.24 2.118-.196 2.986-.073.145-.184.267-.277.4-.127.08-.238.196-.381.24-.049.014-.078-.071-.127-.085-.143-.04-.298-.027-.438-.076-.485-.17-.804-.546-1.127-.917-.573-.76-.982-1.624-1.332-2.505-.084-.298-.291-.698-.234-1.017.317-.49.855-.806 1.34-1.11.314-.095.64-.374.986-.359.039.003.076.019.114.028.027.022.058.04.081.065.212.235.14.91.127 1.183-.06.964-.126 1.926-.193 2.89-.05.352-.077.832-.347 1.105-.055.055-.134.173-.197.127-.06-.043.077-.125.116-.187-.099-.039-.208-.059-.296-.116-.717-.468-1.12-1.6-1.386-2.37-.289-.863-.281-1.761-.03-2.628.165-.429.46-.787.734-1.15l.09-.117c.056-.078.11-.183.186-.245.042-.034.161-.134.135-.088-.031.054-.1.075-.15.113.355-.127.822-.294 1.152-.01.051.044.087.104.131.156.033.07.074.135.099.207.21.61.006 1.368-.14 1.966-.217.718-.527 1.424-1.024 1.994-.041.04-.177.137-.123.118.096-.032.21-.073.258-.164.025-.047-.111 0-.16-.024a.711.711 0 01-.19-.156c-.211-.228-.315-.443-.473-.712-.385-.7-.687-1.439-.956-2.19a2.445 2.445 0 01-.159-1.12c.041-.385.16-.747.34-1.087.098-.17.211-.327.374-.44.04-.029.168-.107.127-.079-.078.054-.158.103-.237.155.262-.095.55-.16.824-.072.062.02.12.05.181.075.609.29 1.028.815 1.414 1.348.668.989 1.055 2.121 1.45 3.237a31.597 31.597 0 011.064 3.55c.177.797.221 1.62.175 2.435-.013.22-.038.44-.057.66a14.58 14.58 0 01-.393 2.063c-.096.363-.219.822-.4 1.16-.08.147-.192.274-.288.411-.179.004-.44.013-.578-.017-.65-.141-1.069-.672-1.359-1.236-.136-.264-.226-.55-.339-.826a10.93 10.93 0 01-.498-2.583c-.027-.419-.03-.963.048-1.384.033-.181.102-.355.153-.532.2-.322.274-.535.621-.726.052-.028.117.01.176.01.185.004.372-.023.556-.002.547.062.898.216 1.419.395 1.127.463 2.283.97 3.168 1.836.79.772.852 1.029 1.424 1.995.18.43.382.852.54 1.291.298.833.546 1.835.727 2.702.168.805.252 1.317.303 2.118.016.244.01.49.015.734-.03.382-.033.811-.267 1.14-.037.052-.196.162-.139.133.45-.225.075-.167-.119-.172-.181-.042-.365-.075-.544-.126a21.737 21.737 0 01-1.484-.513c-.547-.215-1.218-.493-1.708-.823-.284-.19-.532-.431-.799-.647-.233-.287-.492-.555-.701-.86-.862-1.262-1.309-2.784-1.616-4.264-.068-.328-.117-.66-.175-.99-.169-1.153-.242-2.315-.3-3.477-.281-.077.284-.315.162-.334-.066-.01-.205.085-.154.129.08.07.215-.006.32.016.313.065.486.191.763.346.123.101.262.186.369.304.498.552.683 1.328.826 2.032.183.901.251 1.605.364 2.522.307 1.876.684 3.74 1.05 5.604.048.283.103.484.071.772-.073.66-.43 1.271-.745 1.84a13.18 13.18 0 01-.617.976c-.057.08-.186.25-.27.32-.036.03-.08.049-.12.073.092-.077.236-.119.276-.232.02-.06-.114-.058-.158-.102a1.091 1.091 0 01-.171-.226c-.248-.428-.339-.927-.455-1.4-.264-1.122-.642-2.211-.959-3.32-.177-.672-.367-1.341-.507-2.023-.08-.393-.19-.959-.192-1.366 0-.211.04-.42.06-.63.064-.197.094-.409.194-.59.27-.488.639-.74 1.095-1.043.332-.221.845-.48 1.221-.6.2-.064.41-.086.616-.129.2.027.412.011.601.081.515.19.887.595 1.205 1.021.653.876 1.034 1.878 1.426 2.884.303.876.56 1.774.71 2.69.053.33.124.895.072 1.243-.024.162-.098.311-.147.467-.113.114-.205.252-.338.341-.066.045-.156.032-.235.043-.202.029-.403.07-.608.077a3.425 3.425 0 01-1.267-.19c-.21-.077-.401-.196-.602-.294-.183-.176-.39-.33-.547-.528-.641-.803-1.039-2.11-1.186-3.119-.031-.218-.034-.44-.052-.66.024-.441.066-1.02.536-1.246.04-.02.072.063.116.072 1.134.232-.128-.19 1.155.3.883.442 1.668 1.036 2.171 1.902.314.541.335.737.506 1.32.057.398.15.691.029 1.086-.04.13-.128.242-.205.355-.02.028.055-.078.028-.099-.095-.07-.22-.082-.33-.123l-.356-.308c-.397-.46-.676-.998-.88-1.567-.098-.271-.239-.728-.226-1.033.005-.13.063-.252.095-.379.071-.075.121-.178.214-.225.04-.02-.075.112-.034.134.11.058.248.03.372.046.143.065.297.108.429.194.416.269.501.46.797.857.091.191.198.375.273.573.141.374.336 1.148.141 1.543-.033.069-.19.208-.187.132.005-.12.13-.202.195-.303-.085-.123-.19-.235-.256-.37-.526-1.061-.601-2.4-.548-3.56.016-.331.062-.66.093-.99.131-.869.352-1.727.93-2.417.21-.25.519-.641.918-.563.185.036.347.15.52.224.156.191.344.36.469.573.643 1.094.719 2.634.428 3.843-.074.304-.207.59-.31.886-.184.185-.32.436-.552.556-.127.066-.293.003-.426-.049-.79-.31-1.251-.98-1.374-1.81-.04-.262.01-.531.014-.797.192-.514.443-1.228 1.12-1.242.189-.004.386 0 .563.065.494.183.636.483.946.877.074.241.19.474.222.724.093.737-.154 1.613-.828 2.018-.27.162-.768-.137-.942-.208-.179-.197-.401-.362-.536-.592-.328-.56-.468-1.354-.508-1.984-.044-.692.003-1.353.273-2 .122-.294.326-.546.489-.82.534-.59 1.138-1.221 1.987-1.279.226-.015.478-.052.677.055.494.268.524.975.623 1.412-.017.346-.001.696-.05 1.04-.141.99-.527 2.033-1.333 2.682-.514.415-.834.342-1.46.394-.255-.083-.525-.128-.764-.249-.9-.455-1.593-1.491-1.727-2.482-.035-.255-.007-.514-.01-.771.046-.25.072-.505.14-.75.267-.965.895-1.854 1.76-2.372.18-.109.388-.166.581-.249.574-.11.87-.243 1.446-.081.663.186 1.19.761 1.41 1.398.082.236.092.49.138.734-.012.252.011.508-.036.755-.08.42-.34 1.024-.66 1.327-.164.155-.365.305-.589.338-.186.028-.947-.625-.947-.625-.33-.67-.53-.893-.523-1.689.006-.764.265-1.455.659-2.1.5-.82.884-1.088 1.573-1.726.478-.338.858-.68 1.413-.86.35-.114.697-.215.921.186.306.548.102 1.166.031 1.73-.445 1.251-.417 1.333-1.078 2.517-.211.378-.422.761-.689 1.103-.216.277-.814 1.043-1.369.927-.22-.046-.367-.26-.551-.39-.124-.259-.294-.501-.372-.778-.371-1.323.041-3.04.801-4.156.214-.314.494-.576.742-.864.603-.51.946-.872 1.659-1.215.298-.144.724-.243 1.04-.056.36.212.331.59.394.939-.05.285-.072.577-.152.856-.195.686-.579 1.493-.945 2.095-.329.54-.913 1.38-1.475 1.739-.193.123-.444.117-.666.175-.228-.07-.484-.08-.684-.21-1.007-.655-.843-2.205-.516-3.167.093-.274.239-.528.358-.791.148-.223.278-.46.443-.67.695-.884 1.715-1.51 2.75-1.917.24-.095.489-.162.733-.242.188 0 .38-.038.564.003.495.107.73.588.773 1.047.049.536-.061.754-.199 1.278-.13.246-.238.506-.39.74a7.852 7.852 0 01-2.032 2.086c-.651.46-.85.515-1.533.824-.262.064-.517.167-.785.191-.675.062-1.216-.218-1.51-.834-.25-.524-.18-.791-.181-1.368.055-.27.088-.544.166-.807.301-1.032.911-2.05 1.621-2.853.167-.188.352-.358.527-.538a12.468 12.468 0 011.966-1.486c.173-.105.369-.169.555-.249.559-.204 1.106-.325 1.67-.064.1.046.19.113.285.169.085.102.189.191.257.305.39.654.37 1.477.257 2.2-.171 1.1-.536 2.123-.863 3.183-.921 2.76-2.194 5.388-3.613 7.924-.31.553-.616 1.11-.96 1.644-.293.456-.633.88-.95 1.32-.31.291-.568.648-.928.873-.805.504-1.745.156-2.31-.509-.623-.731-.568-1.085-.777-2.025.04-.503.034-1.013.12-1.51.104-.589.266-1.167.447-1.737a20.279 20.279 0 012.532-5.18c.33-.487.707-.942 1.06-1.413 1.077-1.287 2.304-2.447 3.74-3.324.309-.188.528-.262.861-.4.401-.117.85-.199 1.23.037.297.184.331.302.533.592.072.174.16.343.215.523.337 1.113.176 2.307-.146 3.402-.1.341-.234.671-.35 1.007a26.733 26.733 0 01-2 3.908c-.433.697-.6.915-1.061 1.568-.583.733-1.23 1.435-2.019 1.954-.203.134-.418.26-.65.337-.728.247-.926.157-1.672.102-.255-.126-.536-.209-.765-.378-.522-.386-.888-.957-1.121-1.553-.131-.335-.26-.684-.28-1.043-.066-1.195.31-1.914.689-3.035a14.101 14.101 0 013.094-4.245c.593-.558 1.307-1.161 2.1-1.435.29-.1.608-.089.912-.133.262.096.559.126.787.287.563.395.832 1.059.962 1.702.17.842.087 1.56-.113 2.39-.096.4-.255.784-.383 1.176-.431.928-.472 1.102-1.008 1.934-.155.24-.295.498-.5.699-.14.138-.317.336-.51.297-.14-.028-.04-.281-.08-.417-.065-.216-.157-.422-.235-.633-.12-.914-.075-1.662.378-2.488.19-.344.411-.742.844-.802.191-.027.385.025.578.038.17.092.358.157.51.277.45.353.827 1.088.442 1.618-.062.086-.161.138-.242.207.03-.032.126-.077.087-.094-.34-.153-.175.264-.504-.097-.592-.649-.354-1.682-.282-2.438.259-1.214.7-2.38 1.29-3.47.238-.442.617-1.052.974-1.432.121-.13.274-.227.411-.34-.005.047-.033.097-.015.14.147.358.266-.003.155.55-.122.601-.518.939-.939 1.337-.155.107-.297.237-.465.322-.065.033-.145.023-.219.025-.303.008-.58.056-.795-.232-.236-.316-.142-.695-.122-1.045.068-.213.118-.432.204-.639a4.957 4.957 0 011.457-1.916c.105-.084.22-.154.33-.23-.018.027-.08.065-.052.083.254.175.212-.17.398.195.315.62-.026 1.552-.17 2.15-.14.386-.268.78-.422 1.161-.294.727-.886 1.982-1.225 2.668a83.466 83.466 0 01-1.454 2.786c-.238.43-.489.851-.733 1.277-.649 1.038-1.277 2.113-2.157 2.979-.35.345-.887.783-1.366.98-.256.104-.533.15-.8.226-.276.012-.552.05-.829.037-1.04-.051-2.164-.472-2.747-1.39-.141-.222-.208-.484-.312-.726 0-.315-.042-.634.003-.946.101-.718.43-1.502.74-2.146.304-.634.723-1.334 1.118-1.916.207-.305.433-.596.65-.893.865-1.084 1.795-2.138 2.908-2.977.607-.458.777-.53 1.392-.873.622-.305 1.271-.578 1.952-.721.3-.063.731-.13 1.04-.03.152.05.277.165.415.247.113.169.262.318.34.506.23.564.29 1.36.286 1.944-.006.855-.129 1.86-.376 2.676-.149.489-.378.949-.567 1.423-.297.458-.554.946-.892 1.374-1 1.27-2.324 2.266-3.732 3.036-.381.209-.771.403-1.176.56-.341.133-.703.206-1.054.309-.293-.05-.609-.024-.877-.15-.666-.312-.872-.881-1.01-1.558-.149-.74-.094-1.567.073-2.297.081-.354.23-.69.345-1.034.326-.618.48-1.023.956-1.53.15-.16.297-.374.514-.414.113-.022.137.185.2.281.666 1.024.397.5.605 2.09-.035.607-.048 1.216-.103 1.821-.098 1.072-.31 2.413-.507 3.48-.14.753-.327 1.663-.56 2.408-.083.267-.196.525-.294.788-.194.43-.41.886-.832 1.141-.034.02.1-.076.066-.097-.078-.048-.183-.02-.274-.03l-.253-.167c-.068-.093-.154-.174-.203-.278-.263-.556.04-1.238.45-1.633.136-.131.304-.226.456-.34.246-.045.446-.112.702.032.57.322.706 1.228.736 1.796.015.287-.014.574-.022.86-.108.8-.225 1.637-.716 2.31-.134.183-.288.363-.482.48-.188.113-.886-.14-.936-.153-.704-.391-1.233-.97-1.668-1.64-.246-.378-.51-.857-.6-1.31-.04-.195-.017-.397-.026-.596.081-.145.14-.305.243-.436.017-.022.054.013.08.021.132.041.28.048.393.127.611.434.636 1.184.719 1.843-.042.51-.051 1.634-.688 1.856-.064.023-.01-.144-.053-.196-.94-1.15.349.83-.614-.732-.255-.557-.385-1.155-.472-1.758a4.505 4.505 0 01-.06-.871c.006-.096.028-.19.042-.286.043-.05.134-.22.13-.153-.009.121-.17.218-.142.336.045.18.243.286.334.449.13.231.23.478.322.727.314.854.257.819.35 1.698-.054.27-.06.86-.438 1.003-.069.026.015-.16-.028-.22-.103-.143-.28-.22-.388-.36-.351-.46-.453-.863-.656-1.402a12.142 12.142 0 01-.463-2.521c-.027-.352-.056-.923.02-1.286.03-.145.106-.278.16-.416-.016.025-.07.057-.047.078.108.1.272.124.378.227.526.508.939 1.472 1.097 2.17.058.256.059.522.088.783-.073.188-.107.396-.218.564-.035.052-.122.054-.184.042-.204-.038-.422-.074-.594-.19-.249-.168-.454-.4-.635-.64-.543-.72-.683-1.26-1.012-2.098-.32-.99-.56-2.001-.634-3.04-.02-.278-.05-.89.05-1.188.051-.15.163-.271.244-.407.137-.1.259-.224.41-.301.075-.038.166-.033.25-.033.439-.003.591-.01.943.283.367.306.397.51.586.935.066.343.192.746.073 1.102-.045.133-.12.302-.257.335-.088.021-.052-.18-.115-.244-1.221-1.254.173.62-1.092-1.235-.159-.342-.333-.677-.476-1.025-.53-1.297-.9-2.72-1.104-4.106-.034-.23-.05-.46-.076-.691.032-.338.007-.584.193-.876.053-.084.118-.19.217-.207.065-.01-.11.131-.071.183.083.112.26.114.363.207.161.143.28.326.42.49.131.238.287.465.395.716.4.925.508 1.834.277 2.821-.15.641-.328.88-.634 1.432-.14-.163-.26.531-.503.526a.952.952 0 01-.398-.073c-.604-.297-.916-1.022-1.2-1.577-.09-.263-.198-.521-.272-.79-.252-.907-.376-1.99.018-2.88.074-.168.194-.313.29-.47.136-.095.247-.242.407-.284.082-.022.147.085.225.118.184.079.39.11.558.217.474.302.773.741 1.004 1.245.125.273.188.57.281.855.822.193-.253.971.054 1.256.095.088.256-.14.284-.267.032-.149-.103-.288-.128-.437-.097-.57-.064-.932-.057-1.513.08-.649.194-1.342.705-1.808.107-.098.23-.217.374-.223.07-.003 0 .145.035.205.07.119.181.21.271.315.122.386.217.53.157.94-.012.079-.169.264-.107.214.531-.427.319-.353.39-.935.03-.233.086-.463.129-.694.137-.487.234-.907.442-1.37.075-.167.151-.34.268-.483.075-.092.178-.233.293-.203.09.024-.14.154-.13.246.01.093.119.144.178.216.126.334.2.702.06 1.048-.03.079-.227.233-.148.205.346-.119.25-.215.177-.4-.013-.228-.014-.505.152-.688.034-.038.164-.112.134-.072-.347.471-.363.11-.242.568-.004.119.013.24-.012.356a1.398 1.398 0 01-.4.702c-.03.027.048-.085.025-.118-.697-.999.266.852-.41-.541-.085-.364-.15-.769-.017-1.134.027-.074.202-.222.127-.2-.369.115-.245.27-.185.5-.024.159-.024.324-.073.477-.116.362-.346.775-.679.987-.076.049-.183.018-.271 0-.563-.117-.472-.14-.88-.534-.077-.168-.175-.328-.233-.504-.128-.392-.178-.935.047-1.31.044-.073.185-.261.189-.175.004.1-.125.16-.187.24.061.06.131.115.183.184.297.4.387.938.453 1.42-.011.032-.06.116-.032.096.143-.1.302-.197.392-.347.047-.08-.027-.185-.02-.278.009-.13.034-.26.068-.386.1-.373.148-.416.327-.738.066-.04.225-.195.197-.123-.056.149-.25.223-.293.377-.043.154.052.316.058.475.012.332-.032.997-.095 1.319-.038.194-.111.38-.166.569-.092.112-.16.248-.275.335-.049.036.082-.116.06-.172-.044-.105-.178-.149-.233-.248-.164-.297-.185-.63-.144-.959.023-.178.089-.349.133-.524.162-.34.163-.473.46-.684.062-.044-.154.097-.152.174.002.06.113.046.16.083.047.039.078.094.118.14l.377-.226v0c-.046-.055-.202-.277-.307-.258-.616.11-.723.393-.925.9-.13.523-.273 1.016-.04 1.546.05.114.1.285.223.298.21.023.42-.095.595-.21.105-.07.136-.211.205-.317.043-.185.098-.368.13-.556.023-.132.141-1.221.153-1.352.017-.182.155-.405.04-.547-.23-.283-.476-.012-.614.112-.181.371-.337.742-.415 1.152-.02.104-.127.265-.034.317.133.073.305-.032.446-.088.026-.01-.016-.053-.024-.08-.14-.578-.256-1.19-.648-1.657-.188.058-.387.087-.562.175-.156.077-.209.384-.22.506-.052.527.107 1.018.352 1.477.24.24.48.6.893.562.762-.07 1.214-.655 1.47-1.305.066-.17.094-.352.141-.528-.048-.43.052-.54-.553-.138-.155.103-.121.773-.106.907.016.143.051.283.077.424.036.093.174.618.405.607.554-.025.898-.511 1.019-.99.031-.122.024-.252.036-.378-.01-.102.064-.269-.031-.306-.162-.063-.345.047-.511.095-.229.067-.237.628-.237.801.023.073-.007.217.07.22.325.01.542-.129.621-.398.074-.252.073-.468.033-.726-.019-.123-.059-.242-.089-.362-.057-.085-.072-.238-.172-.253-.219-.033-.642.097-.789.323-.092.142-.15.304-.212.461-.153.398-.306.96-.423 1.363-.064.243-.133.485-.194.73-.046.189-.205.392-.127.57.053.123.27.088.397.046.057-.018.01-.119.007-.178-.016-.56-.01-.4-.154-.967-.087-.118-.118-.322-.261-.355-.221-.052-.453.062-.667.139-.735.263-.847 1.36-.925 1.992-.023.559-.046 1.017-.053 1.574-.002.18-.128.417.003.54.11.102.343-.014.426-.138.22-.333-.638-.908-.221-1.177-.2-.62-.307-1.107-.684-1.653-.177-.256-.661-.758-1.041-.776-.597-.029-.765.177-1.158.474-.087.155-.197.3-.262.465-.441 1.135-.04 2.557.324 3.653.224.5.569 1.384 1.088 1.678.601.34 1.118-.313 1.4-.75.27-.546.42-.77.547-1.397.255-1.268-.005-2.468-.577-3.607-.051-.082-.417-.792-.678-.805-.22-.01-.43.11-.626.211-.33.172-.275.768-.253 1.042.434 1.965.981 3.914 1.76 5.772.099.188.557 1.245.919 1.37.23.079.502.006.723-.096.116-.054.169-.204.2-.329.095-.374-.023-.746-.093-1.106-.076-.18-.127-.371-.226-.538-.172-.289-.463-.59-.797-.693-.644-.199-1.243.243-1.713.62-.074.138-.183.262-.223.413-.076.289.029.874.073 1.13.174 1.011.472 1.99.766 2.971.137.391.251.79.41 1.173.31.746 1.2 2.763 2.295 1.58.126-.137.094-.359.14-.538-.042-.255-.065-.514-.128-.765a11.199 11.199 0 00-.603-1.654c-.102-.214-.205-.432-.349-.62-.092-.122-.197-.299-.349-.295-.22.005-.385.211-.578.317-.035.133-.09.262-.105.4-.04.355.026.908.067 1.245.104.848.257 1.691.478 2.517.164.527.272.995.553 1.473.092.155.164.373.337.423.371.108.769-.107.872-.457.059-.202.041-.419.062-.628-.037-.277-.058-.556-.113-.83a18.243 18.243 0 00-.468-1.658c-.066-.18-.072-.433-.241-.526-.483-.264-.562-.017-.693.22-.001.092-.01.183-.004.274.016.268.081.578.133.836.12.6.243 1.201.467 1.773.066.13.315.76.566.8.222.037.457-.045.658-.145a.674.674 0 00.285-.32c.234-.489.228-.977.276-1.503-.048-.57-.024-.958-.271-1.484-.098-.208-.396-.672-.735-.615-.66.113-.638.299-.85.764.02.195.01.396.06.586.113.437.407.921.65 1.288.438.658.941 1.261 1.611 1.694.199.062.389.2.597.185.832-.056 1.31-.72 1.579-1.426.199-.525.248-1.073.329-1.622.034-.765.144-1.639-.236-2.35-.087-.162-.202-.325-.361-.419-.439-.258-.866.098-1.234.263-.157.117-.329.216-.469.352-.43.417-.753 1.116-.497 1.705.048.11.13.199.196.298.085.063.158.146.254.188.515.223 1.148-.382 1.354-.812.079-.165.127-.344.191-.516.414-1.569.745-3.164.98-4.77.088-.61.173-1.221.23-1.835.054-.606.068-1.214.102-1.821-.005-.205.132-1.901-.36-2.261-.192-.14-.489-.076-.714 0-.187.063-.316.242-.444.392-.428.497-.566.893-.855 1.489-.105.34-.24.672-.315 1.02-.157.723-.22 1.585-.107 2.32.11.718.233 1.291.968 1.598.293.122.63.07.944.106.363-.11.735-.193 1.087-.333.42-.167.826-.37 1.221-.586 1.41-.772 2.732-1.767 3.733-3.037.338-.43.594-.916.891-1.375.189-.474.418-.934.566-1.423.244-.805.365-1.854.411-2.695.03-.53.05-1.5-.112-2.05-.059-.199-.202-.362-.304-.543-.142-.085-.27-.206-.428-.255-.314-.098-.787-.017-1.088.051-.706.16-1.38.452-2.025.773-.712.407-.996.537-1.638 1.026-1.096.837-2.009 1.886-2.863 2.96-.218.299-.446.59-.653.896a14.149 14.149 0 00-1.557 2.978c-.135.363-.272.73-.346 1.11-.062.324-.04.658-.06.986.102.246.165.512.307.737.138.218.325.405.522.572.626.531 1.446.777 2.255.818.278.014.556-.023.834-.035.27-.077.554-.118.812-.231 1.744-.767 2.704-2.548 3.677-4.074.245-.426.496-.848.733-1.277 1.188-2.147 2.268-4.359 3.16-6.645.176-.545.664-1.716.439-2.326-.056-.153-.276-.275-.436-.225-.213.067-.4.197-.6.296-.097.073-.199.14-.291.22-.59.51-1.07 1.18-1.377 1.896-.092.214-.153.439-.23.658-.038.36-.161.772.079 1.11.085.12.23.195.372.236.582.165 1.215-.325 1.651-.643.438-.418.843-.78 1.006-1.396.01-.04.127-.625-.159-.624-.213 0-.4.146-.6.219-.107.103-.229.193-.322.308-.304.375-.618.954-.824 1.368-.549 1.104-1.005 2.255-1.267 3.462-.13.707-.486 1.946-.02 2.64.264.393.921-.063 1.115-.176.073-.072.166-.128.22-.216.336-.552-.107-1.274-.546-1.615-.156-.12-.347-.19-.52-.285-.201-.012-.41-.089-.604-.035a2.025 2.025 0 00-.776.413c-.191.164-.311.4-.428.623-.286.55-.398 1.049-.44 1.666-.02.286.009.574.013.861.054.233-.005.527.161.698.32.329.809.128 1.042-.132.178-.2.302-.442.437-.673.456-.776.547-1.047.926-1.898.128-.392.284-.776.383-1.176.21-.85.302-1.552.163-2.42-.103-.64-.318-1.36-.892-1.758-.238-.166-.551-.179-.827-.268-.327.061-.67.07-.982.184-.833.306-1.524.875-2.159 1.473a14.1 14.1 0 00-3.093 4.246c-.357 1.057-.765 1.923-.736 3.061.009.364.132.718.255 1.06.212.595.561 1.2 1.073 1.593.226.175.51.257.765.386.695.053 1.012.153 1.69-.102.321-.121.617-.304.904-.491.796-.52 1.441-1.243 2.042-1.968 1.15-1.725 2.195-3.526 2.986-5.447.124-.34.265-.673.373-1.018.348-1.116.554-2.336.298-3.494-.042-.189-.116-.37-.173-.554-.174-.29-.221-.446-.499-.64-.4-.28-.891-.147-1.312-.011-.165.073-.335.137-.496.22-1.715.89-3.127 2.252-4.374 3.707-.353.471-.73.925-1.06 1.413a20.279 20.279 0 00-2.532 5.18c-.18.57-.343 1.15-.446 1.738-.087.498-.08 1.007-.12 1.51.142.95.06 1.347.657 2.102.638.806 1.6.964 2.478.41.359-.226.618-.582.927-.873.317-.44.657-.865.95-1.32.345-.534.65-1.091.96-1.645 1.419-2.536 2.692-5.164 3.613-7.924.425-1.379.604-1.85.905-3.205.183-.825.37-1.555-.019-2.348-.06-.123-.16-.221-.24-.332-.254-.154-.311-.214-.601-.292-.481-.13-.958.025-1.41.187-.14.06-.283.11-.418.18-.942.485-1.795 1.124-2.567 1.846-.431.447-.638.627-.998 1.142-.443.634-.886 1.509-1.115 2.245-.084.268-.125.548-.187.822-.03.58-.124.882.123 1.417.307.662.911.885 1.606.804.278-.032.543-.14.814-.21.704-.342 1.133-.513 1.767-.964a9.028 9.028 0 002.072-2.11c.167-.243.295-.513.442-.77.156-.519.287-.784.265-1.325-.021-.509-.27-.987-.824-1.063-.209-.03-.421.026-.632.04-.26.091-.525.166-.778.275-.328.14-.647.3-.962.468-.78.416-1.535.905-2.08 1.617-.158.206-.277.44-.416.66-.113.262-.25.514-.339.785-.256.784-.427 1.87-.034 2.645.116.229.286.446.502.584.21.134.48.132.72.198.3-.108.632-.152.9-.325.505-.326 1.123-1.245 1.413-1.714.587-.95 1.068-1.975 1.314-3.067-.022-.209.011-.43-.065-.625-.147-.377-.508-.494-.882-.42-.3.06-.583.2-.856.338-.694.353-.988.675-1.584 1.188-.25.29-.533.553-.75.869-.626.917-.937 2.06-.96 3.163-.008.35.004.704.076 1.046.06.289.209.552.314.827.194.13.35.38.584.392.642.035 1.244-.65 1.563-1.07.262-.344.477-.724.688-1.102.627-1.123.665-1.35 1.118-2.538.114-.478.454-1.321.177-1.871-.22-.437-.732-.258-1.04-.137-.714.283-1.007.558-1.62 1.006-.685.643-1.049.906-1.559 1.722-.413.66-.7 1.355-.736 2.143-.037.79.158 1.062.442 1.75.178.155.309.396.535.464.27.08.571.025.843-.05.691-.192 1.087-1.034 1.206-1.672.046-.249.023-.506.035-.76-.109-.638-.069-.85-.455-1.388-.44-.613-1.058-.882-1.805-.831-.263.018-.518.102-.777.153-.716.344-.987.399-1.546.92a4.056 4.056 0 00-1.13 1.909c-.066.245-.09.5-.134.75.003.26-.025.521.01.778.136.992.85 2.036 1.75 2.49.242.123.515.169.772.253.276-.026.564.008.828-.077 1.424-.457 1.973-1.797 2.199-3.152.059-.353.067-.713.101-1.07-.066-.479-.01-1.19-.564-1.478-.211-.11-.479-.079-.713-.038-.575.1-1.2.43-1.645.804-.23.192-.414.434-.621.65-.159.273-.359.525-.476.818-.262.658-.278 1.29-.238 1.987.034.577.158 1.505.416 2.045.115.241.322.426.484.638.193.085.369.26.58.255.283-.006.559-.137.8-.284.645-.394.866-1.333.793-2.027-.027-.256-.133-.498-.2-.747-.287-.396-.435-.731-.92-.92-.661-.257-1.472.186-1.824.75-.129.207-.177.454-.266.682.005.701-.068.942.252 1.606.155.32.637 1.006 1.073 1.068.753.106.91-.273 1.318-.724.093-.292.213-.576.28-.874.263-1.2.202-2.785-.34-3.905-.11-.225-.28-.414-.42-.62-.18-.079-.343-.246-.538-.236-.28.015-.544.157-.782.304-.208.128-.376.315-.529.505-.554.69-.76 1.535-.863 2.394-.025.327-.06.653-.073.981-.045 1.193-.003 2.53.348 3.68.046.153.121.295.182.442.191-.033.389-.038.572-.1.174-.057.122-.457.119-.503-.04-.608-.236-1.18-.522-1.714-.274-.402-.365-.61-.752-.903a1.653 1.653 0 00-.403-.223c-.396-.153-.608-.05-1.005.186-.082.049-.117.152-.175.228-.018.124-.06.247-.053.372.013.28.184.768.277 1.012.215.566.477 1.118.835 1.608.092.098.427.533.654.502.677-.095.846-.54.79-1.126-.018-.195-.078-.383-.117-.575-.18-.542-.24-.807-.533-1.314-.519-.895-1.261-1.438-2.149-1.931-.261-.124-.752-.419-1.09-.369-.33.049-.803.23-.999.553-.196.323-.145.585-.151.948.03.214.046.43.09.642.073.364.325 1.218.44 1.546.184.52.423 1.129.751 1.582.15.206.348.37.521.555.2.1.39.222.6.302.462.176 1.364.299 1.848.154.27-.08.532-.2.769-.352.136-.088.221-.238.332-.356.038-.154.102-.303.114-.46.03-.357-.086-.869-.164-1.2a23.371 23.371 0 00-.807-2.641c-.398-.992-.774-2.024-1.357-2.928-.281-.437-.616-.891-1.123-1.093-.193-.076-.412-.054-.617-.08-.215.048-.437.075-.646.145-.496.166-1.141.533-1.56.803-.468.303-.893.594-1.172 1.093-.102.18-.126.395-.189.592-.015.21-.05.42-.044.63.006.22.045.44.079.66.146.924.402 1.83.601 2.744.05.197.095.396.149.593.25.915.618 1.798.794 2.733.039.186.077.372.117.557.084.388.147.837.393 1.166.04.054.083.144.15.137.19-.02.356-.138.534-.206a1.31 1.31 0 00.323-.384c.19-.308.361-.627.536-.943.205-.383.295-.536.473-.94.116-.263.28-.643.315-.94.035-.293-.044-.479-.119-.756a28.757 28.757 0 01-1.304-5.465c-.055-.44-.117-.879-.163-1.32-.111-1.049-.062-2.518-.776-3.394-.101-.123-.24-.211-.359-.317-.255-.158-.443-.297-.73-.388-.4-.125-.477-.019-.891.255a.295.295 0 00-.11.154c-.02.062-.002.13-.003.194.202 1.112.349 2.232.557 3.343.378 1.789.822 3.682 1.83 5.236.202.31.45.587.675.88.26.22.5.466.78.662.262.185.552.33.837.476.27.138.55.254.828.377.612.271 1.232.528 1.857.767.097.017.195.076.29.05.86-.23.806-.736.76-1.485-.138-.976-.058-.494-.274-1.606-.252-1.3-.504-2.604-.953-3.855-.158-.44-.36-.861-.54-1.291-.491-.867-.675-1.32-1.353-2.04-.843-.894-1.99-1.401-3.088-1.895-.471-.181-1.366-.594-1.892-.474-.388.088-.824.299-1.083.622-.1.126-.16.28-.239.42-.04.174-.096.344-.118.521a4.566 4.566 0 00-.024.625c.016 1.124.274 2.223.572 3.3.29.835.58 1.926 1.564 2.18.15.039.311.078.46.039.245-.066.454-.229.68-.343.086-.135.188-.26.258-.405.157-.327.265-.797.35-1.14.17-.684.313-1.374.404-2.073.08-.802.135-1.596.093-2.402-.007-.145-.01-.291-.03-.436-.016-.11-.052-.216-.077-.324-.418-1.153-.845-2.303-1.197-3.478-.212-.651-.42-1.301-.67-1.94-.07-.181-.137-.364-.218-.541-.12-.259-.314-.578-.459-.824-.37-.537-.76-1.098-1.346-1.415-.059-.03-.115-.065-.176-.09-.274-.106-.573-.033-.842.05-.462.247-.79.363-1.028.828-.17.346-.268.71-.31 1.093-.035.398-.02.775.181 1.131.346.716.669 1.443 1.032 2.15.128.258.332.783.579.96.282.203.605-.141.788-.353.44-.579.695-1.272.91-1.96.15-.595.41-1.426.227-2.039-.024-.077-.065-.147-.097-.221-.045-.057-.082-.122-.137-.17-.336-.295-.818-.132-1.187-.015-.115.06-.566.263-.753.421-.11.093-.15.249-.245.354-.254.368-.559.718-.697 1.15a5.071 5.071 0 00.164 2.582c.2.573.402 1.144.706 1.672.128.222.384.608.593.78.082.07.19.1.284.15.203-.072.612-.144.797-.355.256-.294.261-.738.29-1.1.012-.964.059-1.927.182-2.883.034-.313.145-.868.025-1.176-.037-.095-.087-.12-.163-.18-.045-.011-.09-.031-.136-.032-.14-.004-.274.05-.4.1-.441.176-.854.416-1.265.65-.356.225-.71.451-1.034.723-.095.08-.268.238-.348.348-.028.04-.046.086-.069.129-.01.33.224.688.339.986.418.852.833 1.711 1.39 2.484.317.376.64.765 1.118.949.14.053.291.11.44.09.525-.07.697-.233 1.078-.491.087-.134.192-.257.259-.402.395-.858.135-2.06.155-2.978-.027-1.022.016-2.047-.078-3.066-.037-.18-.062-.409-.171-.568-.229-.334-.708-.178-1.02-.116-.81.237-1.682.551-2.213 1.249-.084.11-.142.237-.213.356-.031.121-.077.24-.094.364-.024.17-.013.746-.008.89.019.581.085 1.155.237 1.718.491 1.704 1.016 3.406 1.706 5.041.138.275.258.56.415.824.191.325.55.791.846 1.05.3.262.69.417 1.055.562.087.013.178.064.263.039.484-.14.783-.44 1.065-.823.363-.523.607-1.113.658-1.753.007-.156.025-.312.023-.47a4.777 4.777 0 00-.305-1.615c-.066-.178-.133-.358-.229-.522-.087-.148-.21-.272-.314-.409-.13-.118-.252-.244-.39-.354-.652-.521-1.436-.866-2.277-.887-.122.014-.251 0-.367.042-.512.19-1.012.534-1.277 1.025-.048.089-.073.188-.11.282-.172.663-.3 1.347-.227 2.034.046.28.06.399.134.678.171.642.43 1.258.692 1.867.091.179.176.362.275.537.376.666.848 1.318 1.498 1.739.06.017.118.041.179.051.346.059.714-.168.913-.437.114-.214.117-.466.137-.703-.008-.163-.005-.243-.043-.406-.1-.43-.332-.818-.466-1.236-.118-.324-.189-.522-.31-.844-.152-.404-.303-.815-.634-1.11-.303-.217-.517-.334-.898-.28-.315.031-.725.094-.907.391-.006.086.02.166.047.248.089.28.212.546.312.821.233.6.474 1.195.7 1.797.327.867.254.718.572 1.585.084.228.172.454.258.68.34.84.68 1.684 1.124 2.475.355.394.62.383 1.052-.075.027-.048.06-.092.08-.143.054-.134.11-.41.128-.534.084-.598.064-1.204.04-1.805-.07-.912-.118-1.846-.352-2.735-.09-.345-.247-.852-.558-1.095-.113-.09-.27-.098-.406-.146-.426.177-.78.257-1.098.592-.869.913-.569 2.062-.38 3.171.24 1.077.398 1.85.705 2.927.15.53.324 1.053.495 1.577.265.812.528 1.64.914 2.407l.422-.27z" fill="#80c4fa" stroke="#3a58f4" stroke-width=".165"/>
    <circle cx="-19.249" cy="318.411" r=".007" fill="#ea8080" stroke="#3a58f4" stroke-width=".265"/>
    <path d="M-30.445 315.563c-.07-.18-.171-.35-.209-.54-.047-.236-.188-2.13-.197-2.265-.047-.747-.089-1.61-.06-2.363.01-.306.05-.61.076-.914.076-.232.144-.467.229-.696.053-.143.106-.287.182-.42.03-.053.072-.147.132-.131.267.072.228.742.238.795.045.238.12.47.18.704-.03 1.022.023.742-.194 1.759-.054.254-.09.515-.183.758-.09.231-.23.44-.358.652-.233.385-.128.38-.376.253-.12-.068-.28-.092-.359-.206-.169-.243-.183-.913-.205-1.164-.031-.343-.113-.747 0-1.091.053-.162.17-.294.256-.44.403-.217.157-.186.285.033.049.084.16.131.187.225.017.057-.015.18-.073.163-.104-.03-.126-.18-.211-.247-.207-.162-.44-.29-.659-.434-.464-.637-.685-.883-1.037-1.597-.127-.259-.257-.521-.323-.802-.057-.24-.03-.494-.04-.741-.022-.577-.098-.363.192-.747.524.125-.162-.092.326.308.042.035.121.013.16-.024.175-.16.336-.34.455-.543.086-.145.09-.325.15-.482.063-.162.147-.316.22-.474.104-.071.192-.257.309-.213.11.04.017.238.058.349.094.248.274.462.345.718.264.949.229 1.56.017 2.53-.08.366-.238.713-.357 1.07-.139.193-.246.413-.417.58-.08.077-.47.053-.51-.054-.04-.109.179-.606.275-.687.037-.032.096.017.144.026.578.137.405-.003.767.464.044.057.095.25.117.181.04-.126-.027-.263-.049-.394-.046-.28-.113-.558-.153-.84-.051-.358-.08-.72-.12-1.08-.031-.784-.132-1.032.12-1.731.034-.092.08-.23.177-.233.09-.003-.11.145-.133.232-.092.348.135.164-.107.311.032-.153.146-.311.097-.46-.06-.18-.257-.279-.385-.418-.06-.187-.133-.371-.18-.563a2.67 2.67 0 01-.079-.478c-.005-.078-.016-.173.035-.233.027-.031.07.047.105.07.111.038.229.062.335.114.09.044.173.105.246.173.058.053.184.77.307-.216.011-.092-.148-.117-.203-.192-.064-.089-.1-.195-.151-.292.003-.113-.028-.233.01-.34a.845.845 0 01.22-.3c.026-.024.07-.018.104-.016.175.011.38-.045.523.057.413.293.586 1.285.686 1.632.067.464.15.926.202 1.392.086.755.183 2.231.207 3.002.013.402.057.808.006 1.206-.18 1.388-.244.501-.261.347-.11-.163-.253-.307-.33-.488-.11-.257-.146-.539-.223-.807-.09-.313-.204-.62-.276-.938-.227-.997-.256-2.016-.297-3.032.257-.412 0-.951.174-1.381.036-.09.137-.203.231-.178.141.037.22.196.3.318.418.64.49 1.094.733 1.856.252 1.076.496 2.012.648 3.113.065.466.286 1.627-.104 2.158-.082.112-.272.111-.408.081-.288-.063-.541-.233-.812-.35-.247-.303-.53-.579-.74-.909-.54-.852-.85-1.764-1.097-2.735-.23-.9-.401-2.063-.493-2.992-.041-.412-.055-.826-.082-1.239.047-.73-.014-1.098.304-1.744.076-.156.187-.301.323-.41.032-.025.06.056.096.076.84.468.389.037 1.021 1.022.199.358.426.702.595 1.075.204.45.367.918.52 1.387.485 1.476.784 2.998.888 4.549.03.459.022.92.034 1.38-.024.391.007.79-.07 1.174-.055.28-.08.64-.321.791-.156.098-.338-.167-.461-.304-.306-.34-.614-.694-.812-1.106-.54-1.119-.798-2.71-1.051-3.899-.071-.624-.168-1.246-.213-1.873-.037-.516-.09-1.038-.032-1.552.015-.135.178-1.337.79-1.149.249.077.43.31.587.519.222.294.356.646.534.97.337.99.498 1.295.63 2.33.04.316.04.636.038.954 0 .168.01.344-.047.502-.033.09-.299.23-.207.2.183-.06.332-.196.498-.294.11-.015.22-.033.331-.044.314-.033.627-.1.943-.088.836.03 1.566.422 2.377.554.162.026.327.018.49.027.656-.099 1.089-.576 1.592-.958.53-.402.317-.407.726-.261.323.266.342.178.403.565.004.03-.024-.059-.047-.078-.116-.09-.27-.134-.365-.246-.268-.317-.257-.57-.317-.95.2-.252.33-.569.683-.618.151-.02.313-.02.456.031.112.039.203.13.274.225.032.042.001.207.016.157.028-.097.017-.201.026-.301-.107-.202-.234-.394-.322-.604a5.693 5.693 0 01-.31-.904 6.891 6.891 0 01-.13-2.115c.067-.715.185-.985.39-1.633.377-.526.731-1.102 1.256-1.5.503-.336.306-.19.604-.418l-.013.21c.06.092.18.166.18.276.003.239-.127.46-.17.695-.058.302-.064.613-.132.914-.147.652-.591 1.984-.79 2.6-.145.398-.251.813-.436 1.194-.12.247-.241.523-.47.674-.489.322-.797-.53-.874-.71-.137-.32-.271-.648-.317-.993-.054-.4.014-.809.022-1.213.096-.408.158-.826.288-1.225.217-.661.66-1.558 1.073-2.13.304-.423.782-.948 1.298-1.146.186-.072.397-.04.596-.06.159.108.373.162.477.324.226.352.26 1.431.223 1.744-.055.474-.18.938-.313 1.396-.364 1.244-.7 1.898-1.224 3.079-.423.777-.824 1.612-1.388 2.307-.168.206-.32.484-.578.548-.143.035-.232-.197-.291-.332-.13-.295-.244-.61-.262-.931-.027-.488.087-.973.13-1.459.126-.526.214-1.063.377-1.578.336-1.064.767-1.923 1.369-2.856.51-.79.998-1.4 1.717-2.004.276-.232.593-.41.89-.616.24-.084.47-.216.722-.252.687-.097 1.175.335 1.346.973.16.599.032 1.028-.051 1.632-.137.35-.253.71-.41 1.051-.526 1.154-1.24 2.189-2.087 3.131-.255.285-.52.563-.802.82-.247.224-.521.414-.782.621-.246.103-.474.274-.74.308-.811.104-1.628-.542-1.816-1.314-.173-.714.08-1.314.255-1.988.16-.334.292-.683.48-1.003.646-1.098 1.644-2.057 2.71-2.749.162-.105.337-.19.507-.286.162-.026.663-.123.798-.048.136.077.194.25.252.394.22.552.108.673.083 1.269-.01.22-.005.441-.007.662-.24.451-.273.973-.46 1.44-.102.257-.257.489-.37.74-.098.218-.164.448-.26.666-.15.34-.489.984-.662 1.32-.137.242-.426.788-.628 1.006a2.72 2.72 0 01-.461.383.835.835 0 01-.259.112c-.776.207-.942.177-1.8.248a21.183 21.183 0 01-3.091-.224c-.278-.043-.568-.048-.828-.151-.469-.186-.622-.51-.893-.887-.252-.613-.23-.334-.141-.966.012-.085.006-.176.044-.253.012-.023.04.037.05.062.036.1.087.201.083.307-.007.226-.077.446-.116.669-.021.962-.329 1.881-.639 2.782-.22.642-.328.967-.685 1.532-.115.182-.26.343-.39.514-.18.114-.345.258-.54.342-.064.027-.137-.026-.206-.024-1.073.031.06.108-.75-.063-.164-.036-.35.009-.501-.065-.14-.067-.216-.224-.323-.335-.156-.12-.364-.191-.467-.358-.09-.146-.133-.867-.093-1.05.03-.133.125-.244.185-.367.005-.01-.03.023-.02.03.126.11.267.203.401.303.41 1.404.515 2.882.417 4.339-.028.423-.073.851-.19 1.26-.062.216-.21.4-.34.586-.037.053.04-.124.06-.185-.026-.128-.079-.253-.077-.384.007-.454.146-.877.393-1.259.146-.226.423-.643.789-.55.162.04.285.173.428.26.291.516.398.492.253 1.12-.028.12-.06.34-.183.324-.114-.016.117-.224.089-.337-.238-.95-.468.268-.106-.893.024-.036.028-.113.071-.11.233.019.33.298.437.439.029.036.064.122.102.095.164-.12.429-.628.522-.792-.038.042-.138.073-.115.125.044.1.2.106.258.198.111.177.208.69.154.893-.016.062-.19.16-.164.101.049-.118.163-.197.245-.295.039-.145.106-.34-.272.174-.034.046.01.12-.016.172-.012.024-.082.05-.08.022.015-.184.129-.356.12-.54-.014-.268-.124-.522-.186-.783-.043-.305-.108-.606-.13-.913a2.555 2.555 0 01.023-.586c.006-.038.049.063.055.1.037.226.06.454.073.682.055.986.02 1.289-.018 2.299-.048.44-.121 1.604-.35 2.055-.108.213-.267.46-.5.512-.192.043-.376-.148-.518-.286-.7-.681-.876-1.307-1.292-2.197-.509-1.384-.965-2.807-1.146-4.278-.074-.599-.133-1.422.092-2.02.067-.178.234-.3.351-.45.12.539.509.966.685 1.48.185.54.282 1.105.4 1.663.202.97.476 2.372.454 3.396-.006.299-.113.586-.17.88-.072-.021-.165-.007-.215-.062-.39-.432-.526-.938-.539-1.521-.013-.605.04-1.21.597-1.57.08-.052.181.057.272.086.192.065.407.083.578.194.221.144.536.58.541.875 0 .053-.11.098-.149.061a1.348 1.348 0 01-.318-.511c-.113-.313-.146-.65-.22-.975l-.14-1.12-.02.01v0l.104 1.141c.085.318.136.648.256.955.074.188.166.384.32.514.053.045.183-.018.187-.086.025-.458-.63-.938-.91-1.228-.23.056-.493.035-.69.166-.393.26-.417 1.221-.428 1.498-.009.212-.02 1.449.312 1.694.135.099.322-.088.483-.132.056-.293.163-.58.17-.88.021-1.024-.252-2.426-.456-3.395-.117-.559-.259-1.111-.399-1.664-.1-.398-.09-.851-.324-1.188-.123-.178-.415-.117-.622-.176-.07.132-.179.25-.212.396-.12.528-.071 1.49-.01 1.98.181 1.47.637 2.894 1.146 4.278.206.442.372.905.62 1.325.237.404.716 1.229 1.394 1.07.181-.043.266-.273.337-.445.243-.59.284-1.45.35-2.056.037-1.013.073-1.309.017-2.298-.013-.229-.024-.46-.073-.683-.01-.04-.086-.119-.095-.079-.045.19-.026.391-.024.587.004.32.026.641.04.962.052.266.029.56.157.8.082.154.486.424.46.252-.008-.049-.008-.13-.057-.137-.574-.075-.366.054-.27.125.134-.003.268.013.4-.01.019-.003.006-.04.006-.06.01-.546.056-.416-.17-.904-.049-.106-.05-.298-.166-.308-.181-.015-.322.169-.483.253.01.096.013.193.033.288.01.049.094.108.056.14-.23.189-.454-.102-.606-.186-.349-.194-.251-.131-.579.115.024.133.065.264.073.4.01.185-.14.417-.016.556.114.129.36.082.516.008.256-.121-.058-.793-.065-.81-.079-.177-.192-.338-.288-.508-.143-.087-.262-.245-.429-.262-.476-.049-.753.29-.97.639-.219.35-.419.9-.475 1.313-.02.154.011.312.017.468.143-.038.328-.006.431-.113.126-.129.138-.335.175-.512a9.4 9.4 0 00.19-1.26c.067-1.003.019-2.322-.146-3.324-.057-.346-.181-.677-.272-1.015-.053-.168.01-.455-.159-.503-.345-.1-.63.43-.668.672-.083.54.038.499.314.938.099.157.188.318.282.477.17.072.35.124.509.217.1.06.15.195.26.235.136.049.29.006.434.016.117.008.234.061.348.038.583-.118.612-.196.995-.5.13-.172.275-.334.39-.515.843-1.333 1.061-2.917 1.497-4.403-.02-.194-.027-.39-.057-.582-.017-.105-.01-.233-.085-.31-.048-.048-.155-.03-.205.017-.226.211-.115.476-.07.723.035.182.075.363.112.545.127.163.214.367.38.49.314.23 1.108.424 1.468.48.326.05.657.06.987.086 1.24.1.903.074 2.15.106.45 0 1.166.048 1.624-.107.242-.081.468-.211.677-.359.108-.076.178-.195.258-.3.31-.408.367-.546.628-1.006.444-.86.223-.42.662-1.32.123-.243.27-.474.381-.722.1-.221.158-.459.249-.684.103-.255.25-.492.333-.754.07-.222.084-.458.126-.687.057-.25.16-.492.17-.746.009-.207-.07-.408-.112-.61-.09-.434-.09-.644-.387-.972-.068-.075-.153-.17-.254-.165-.195.011-.364.141-.546.212-.182.103-.37.195-.546.309-1.082.7-2.05 1.637-2.709 2.75-.19.321-.327.672-.49 1.008-.241.808-.479 1.15-.244 1.984.077.27.216.53.402.74.324.367.914.647 1.417.578.28-.04.519-.22.779-.331.26-.207.535-.397.78-.621.284-.258.548-.536.803-.82.846-.943 1.56-1.978 2.088-3.133.156-.342.272-.7.408-1.05.176-.68.367-1.04.217-1.728-.156-.713-.701-1.1-1.43-.947-.303.063-.574.23-.86.345-.292.204-.603.382-.876.611-.722.609-1.203 1.207-1.716 2.004-.602.934-1.033 1.793-1.369 2.857-.163.516-.25 1.052-.376 1.578-.055.493-.152.983-.167 1.48-.006.211-.184 1.494.63 1.223.253-.084.411-.342.579-.548.564-.695.964-1.53 1.388-2.308.224-.506.468-1.004.673-1.518.38-.96.712-1.945.882-2.967.123-.736.236-1.159-.243-1.736-.123-.149-.318-.217-.478-.325-.212.027-.436.004-.635.081-.519.202-.991.72-1.298 1.147-.412.573-.856 1.47-1.073 2.131-.13.399-.192.817-.288 1.225-.012.702-.111 1.594.18 2.276.106.247.592.91 1.032.62.228-.15.35-.427.469-.673.185-.382.29-.797.436-1.195.646-2.008.23-.663.79-2.6.095-.332.228-.654.292-.994.038-.201-.016-.412.01-.615.02-.164.196-.328.128-.479-.046-.103-.225.008-.337.011-.14.075-.288.134-.418.224-.074.05-.121.133-.186.195-.105.099-.218.19-.325.287-.196.177-.575.506-.72.73-.094.15-.14.323-.212.484-.095.245-.222.48-.285.735a5.025 5.025 0 00-.126.91c-.04.647.007 1.473.153 2.104.165.708.317.918.632 1.509.115.026.226.075.344.079.063.003-.114-.056-.174-.074a3.454 3.454 0 00-.447-.111c-.39-.062-.68-.074-1.014.222-.105.094-.11.26-.165.389-.119.572-.238.586.085 1.097.08.125.168.286.313.32.374.084.463-.305.405-.537-.033-.136-.142-.241-.214-.361-.198.048-.41.06-.596.144-.15.068-.264.2-.394.305-.286.23-.778.705-1.136.822-.088.029-.186.01-.279.016-.572-.033-.54-.015-1.183-.137-.297-.056-.59-.135-.886-.192-.328-.062-1.341-.254-1.724-.187-.3.054-.572.216-.858.324.067-.004.146.028.2-.012.034-.025-.115-.008-.115-.05-.003-.181.104-.352.106-.533.004-.31-.04-.621-.088-.928-.178-1.126-.27-1.238-.64-2.327-.178-.324-.312-.676-.535-.97-.157-.21-.334-.458-.589-.52-.673-.169-.801.891-.828 1.173-.049.515-.004 1.035.033 1.551.045.627.142 1.25.213 1.874.334 1.575.434 2.417 1.05 3.9.177.424.326.895.66 1.21.79.745.914-.198.976-.613.057-.388.046-.783.069-1.175-.03-1.252-.002-1.61-.193-2.878a18.712 18.712 0 00-1.766-5.56c-.184-.231-.374-.459-.553-.694-.113-.147-.143-.406-.323-.454-.198-.054-.412.092-.578.212-.121.088-.188.239-.239.38-.203.567-.155 1.082-.17 1.681.028.413.042.827.082 1.239.093.93.263 2.092.493 2.992.249.972.558 1.884 1.098 2.736.21.33.494.606.74.91.212.163.372.44.634.49.661.13.826-.594.847-1.021.022-.462-.053-.924-.116-1.381-.153-1.102-.397-2.037-.649-3.114-.199-.625-.344-1.306-.733-1.857-.087-.123-.193-.267-.341-.298-.096-.02-.186.094-.231.18-.27.51-.184.816-.173 1.381.005.317-.004.635.016.951.046.749.147 1.345.28 2.082.06.33.102.663.194.984.075.263.212.505.305.761.07.193.124.39.186.585.14.003.322.106.418.005.109-.113.026-.313.028-.47a27.07 27.07 0 00-.006-1.206c-.045-1.47-.16-2.944-.409-4.395-.235-.817-.186-1.036-.687-1.634-.082-.098-.176-.248-.303-.234-.292.03-.746.336-.855.654-.039.112-.006.238-.009.356.006.014.207.527.29.54.156.023.315-.06.452-.136.037-.02-.077-.033-.113-.054-.474-.278-.05-.078-.598-.308-.15.057-.324.073-.452.17-.297.227-.225.499-.088.794.081.176.238.309.323.483.083.17.036.414.176.543.142.131.376.093.564.139.018-.03.059-.053.055-.087-.032-.277-.182-.33-.471-.179-.066.035-.081.13-.09.204-.028.256.03 1.597.031 1.658.042.359.075.719.127 1.076.042.281.098.56.154.84.025.124.108.245.089.371-.011.072-.074-.124-.118-.182-.094-.121-.198-.235-.298-.352l-.226-.302c-.31.135-.656.183-.765.565-.03.102.043.207.065.31.02.094-.038.275.057.28.434.025.738-.589.91-.828.119-.357.276-.703.357-1.07.204-.938.215-1.646.085-2.587-.04-.28-.018-.608-.203-.82-.328-.377-.653-.022-.866.141-.046.1-.41.874-.42.979-.006.074.155.097.143.17-.01.066-.115.09-.181.084-1.229-.121.43-.185-.64-.116-.204.271-.375.431-.359.837.01.228.13.439.208.653.099.27.196.543.323.802.352.715.573.96 1.038 1.597.135.202.208.463.405.605.137.1.339.087.505.055.06-.011.089-.108.072-.166-.084-.283-.354-.287-.594-.243-.066.012-.108.08-.162.12-.004.11-.004.219-.013.327-.035.433-.103.678-.063 1.126.048.529.268 1.017.368 1.535.148-.049.313-.06.443-.146.44-.286.436-.506.591-.979.087-.263.194-.52.252-.791.115-.541.109-1.178.125-1.726.01-.737.139-.74-.244-1.286-.055-.08-.119-.195-.216-.194-.113 0-.207.108-.274.198-.248.332-.222.655-.268 1.05-.025.305-.065.61-.076.915-.029.76.014 1.607.06 2.363.026.413.058.826.094 1.238.03.343.087.684.104 1.028.01.22-.014.443-.02.664l.249-.135z" fill="#e57962" stroke="#f84749" stroke-width=".165"/>
    <circle cx="-35.377" cy="321.379" r=".006" fill="#fc7a5e" stroke="#3a58f4" stroke-width=".265"/>
    <path d="M-28.718 310.617c-.239-.713-.346-.977-.514-1.803-.099-.489-.158-.986-.24-1.478-.222-1.325-.462-2.647-.68-3.972-.032-.285-.178-1.219-.095-1.57.046-.193.172-.359.277-.527.046-.073.089-.196.175-.192.07.004-.004.155.045.204.104.106.255.151.383.227.338.374.647.666.855 1.148.122.283.177.59.241.89.062.293.13.589.136.888.005.255.031.541-.1.76-.103.17-.352.185-.528.278-.104-.145-.196-.3-.313-.434-.224-.255-.504-.459-.707-.73-.24-.318-.428-.675-.616-1.027a17.722 17.722 0 01-.992-2.302c-.12-.344-.207-.698-.311-1.048-.142-.438-.37-1.019-.39-1.5-.007-.191.097-.379.073-.568-.014-.105-.145-.162-.179-.263-.035-.105.028-.27.06-.374.025-.025.045-.09.076-.073.03.016-.046.062-.037.094a.206.206 0 00.096.112c.362.215.394.078.775.366.151.115.263.273.395.41.117.188.231.378.351.564.132.205.278.4.404.608.362.598.574 1.033.809 1.712.312.905.49 1.748.713 2.68.211 1.002.345 1.524.47 2.521.043.332.032.67.088.999.041.239.16.46.204.698.085.462.043.502-.05.88-.006-.078.024-.17-.02-.236-.62-.948-.504-.036-.963-1.468-.077-.238-.325-1.98-.293-2.29.035-.327.206-.625.308-.937.139-.176.214-.431.416-.527.17-.08.38.008.558.065.306.097.618.206.88.392.3.214.542.501.776.785.613.745.78 1.174 1.216 2.017.329 1.086.701 2.526-.26 3.425-.08.074-.187.112-.28.168-.088-.02-.186-.013-.261-.061-.556-.353-.494-.514-.663-1.202-.083-.335-.199-.67-.213-1.015-.04-.927.196-1.367.484-2.22.328-.644.419-1.016.99-1.466.123-.097.278-.186.433-.175.17.012.304.151.45.238.892.531.588.248 1.034 1.227.245.608.47 1.018.505 1.686.016.29-.06.58-.078.87-.015.24.033.488-.021.723-.38.889-.264.473-.41 1.23-.413-.039-.317.616-.614.731-.094.036-.198-.033-.296-.052-.354-.072-.88-.16-1.181-.373-.185-.131-.302-.34-.452-.51-.11-.23-.268-.443-.33-.69-.08-.309-.084-.633-.09-.95-.03-1.457.278-2.696.925-4.009.284-.575.643-1.11.965-1.666.402-.554.779-1.127 1.205-1.662.43-.541.894-1.057 1.365-1.565 1.13-1.218 2.359-2.349 3.706-3.322.311-.225.64-.426.959-.639 1.482-.849.255-.187 1.236-.646.082-.039.681-.378.893-.384.04 0 .052.063.083.09.049.04.104.073.155.11.064.078.184.133.191.233.018.238-.338 1.452-.37 1.559-.099.342-.196.685-.312 1.022-.124.367-.273.724-.407 1.087-.131.352-.26.705-.389 1.057-.287.702-.5 1.283-.867 1.947a9.97 9.97 0 01-1.174 1.674c-.2.24-.405.477-.63.693-.235.226-.5.42-.75.63-.85.555-1.9 1.26-2.974 1.209-.558-.027-1.03-.286-1.529-.5-.183-.188-.386-.36-.551-.566-.265-.33-.646-.937-.663-1.387-.012-.31.088-.615.172-.914.3-1.075.431-1.095 1.078-2.087 1.326-1.692 2.82-3.283 4.566-4.552.273-.198.561-.373.841-.56.29-.143.929-.48 1.23-.53.132-.023.265.044.394.081.167.05.36.062.49.178.084.074.545 1.047.572 1.103.062.458.357.856.435 1.31.112.648-.041.915-.18 1.564-.327 1.514-.033.424-.506 1.99a12.798 12.798 0 01-1.443 2.933c-.16.24-.323.483-.52.694-.42.45-.803.681-1.293 1.02-.223.093-.436.21-.667.28a4.924 4.924 0 01-.975.21c-.352.03-.71.017-1.059-.034-.861-.127-1.441-.336-2.072-.971-.3-.303-.493-.695-.74-1.043-.307-1.107-.507-1.408-.368-2.576.05-.43.189-.845.32-1.257.119-.372.235-.75.427-1.088.478-.846 1.007-1.255 1.695-1.915.802-.603 1.652-1.222 2.679-1.361.27-.037.557-.082.816.003.261.086.863.84 1.005 1.004.156.24.373.45.469.72.111.315.109.66.138.993.033.372.079.747.048 1.12-.066.792-.418 2.01-.69 2.738-.184.492-.417.963-.626 1.445-.984 1.868-2.105 3.697-3.624 5.185-.549.538-1.047.899-1.644 1.358-.481.22-.759.394-1.305.443-.212.019-.426-.025-.638-.047-.25-.025-.51-.014-.748-.096-.493-.17-.7-.524-1.02-.9-.529-1.94.168.386-.587-1.46-.101-.248-.14-.516-.221-.771-.074-.23-.204-.445-.241-.684-.05-.323.062-.938.112-1.271.099-.186.257-.583.49-.69.27-.122.825-.003 1.055.03.3.044.62.021.9.14.258.11.439.35.658.525.261.197.563.349.783.59.236.26.384.587.563.888.407.686.708 1.247.991 1.994.295.777.322 1.048.486 1.833-.235.384.126.922-.06 1.322-.235.509-.322.358-.66.41-.997.156-.37.169-1.267.07-.153-.074-.301-.161-.46-.223-.215-.084-.441-.133-.657-.211-.58-.212-.876-.358-1.429-.64-.258-.13-.544-.22-.768-.403-.209-.173-.334-.427-.5-.64-.16-.552-.705-.839-.967-1.316-.134-.243-.16-.531-.257-.792-.087-.236-.193-.465-.293-.696-.09-.205-.203-.399-.275-.61-.065-.19-.09-.392-.134-.588-.114-.346-.208-.651-.342-.99-.08-.203-.183-.396-.253-.603-.081-.24-.099-.503-.2-.737-.689-1.609-.265.244-.582-1.66-.358-.545-.228-1.216-.43-1.798-.096-.28-.297-.512-.428-.777-.127-.255-.193-.54-.344-.78-1.37-2.195.21.847-.776-1.123-.065-.288-.51-.615-.507-.916.001-.17.316-.295.265-.259-.105.074-.217.14-.325.21.287-.09.554.037.837.08.531.081.255-.029.682.218.599.507.27.182.823.871.674.839.747.82 1.26 1.902.515 1.083.595 1.554.915 2.696.112.691.33 1.41.117 2.115-.052.174-.16.357-.323.437-.092.046-.19-.083-.273-.143-.687-.499-.542-.461-1.055-1.279-.277-.855-.47-1.346-.618-2.24-.061-.368-.077-.742-.111-1.114-.068-.752-.154-1.119.051-1.85.075-.267.222-.508.333-.762.327-.46.647-.998 1.145-1.306.349-.216.82-.19 1.21-.213.087.084.19.154.26.252.032.044.415.815.425.835.092.178.245.334.283.532.054.28-.027.571-.015.857.015.338.063.673.094 1.01.038.41.089.82.116 1.232.03.456.037.913.056 1.37.029.484.052.968.086 1.452.082 1.13.154 1.756.268 2.872l.026-.014v0c-.237-2.322-.46-4.655-.398-6.992-.036-2.824.09.396-.208-1.801-.03-.23.04-.465 0-.693a1.13 1.13 0 00-.55-.778c-.127-.077-.28-.1-.42-.151-.089-.051-.165-.145-.267-.153-.323-.024-.756.249-.993.394-.61.372-1 .709-1.292 1.376-.061.231-.138.459-.185.693-.105.53-.203 1.38-.155 1.907.032.359.139.707.215 1.059.29 1.333.202.953.618 2.24.08.235.333 1.332.75 1.503.198.08.446 0 .63-.106a.759.759 0 00.323-.439c.212-.707-.006-1.423-.118-2.116-.395-1.411-.322-1.335-.914-2.697-.293-.672-.62-1.427-1.122-1.987-.277-.308-.69-.473-.963-.787-.096-.056-.208-.09-.289-.167-.062-.06-.074-.158-.126-.228-.17-.234-.46-.253-.723-.206-.222.115-.451.216-.666.345-.03.019-.046.058-.059.092-.019.051-.042.107-.033.161.06.354.5.572.703.815.83.774.16.052.812 1.098.15.24.376.435.5.69.131.272.158.584.257.87.496 1.435.226.189.478 1.77.373 1.166.258.567.34 1.798.06.24.23.44.328.667.223.52.362 1.075.59 1.594.087.172.19.338.261.518.298.74.106.603.499 1.347.127.24.323.442.44.687.712 1.475-.247.16.794 1.424.225.177.458.346.675.533.197.17.354.387.567.537.216.152.468.247.706.36.214.104 1.06.486 1.32.539.237.048.481.028.722.043.19.02.381.034.57.063.14.021.278.114.417.086.662-.135 1.15-.592 1.182-1.292.01-.234-.089-.46-.133-.69-.214-1.021-.135-.785-.486-1.833-.23-.684-.478-1.452-.875-2.064-.111-.172-1.118-1.323-1.29-1.521-.277-.138-.562-.262-.832-.414-.2-.112-.354-.31-.573-.375-.634-.19-1.54.163-1.98.625-.123.129-.18.308-.27.463.05 1.267-.059-.277.216 1.107.051.255.026.52.075.775.05.263.15.515.222.774.294 1.06.014.58.753 1.368.53.624.334.502 1.022.9.166.098.324.226.513.267.23.051.473.028.708.004.741-.075.82-.219 1.52-.596.27-.2.554-.383.813-.597 1.935-1.598 3.295-3.754 4.455-5.948.208-.482.442-.953.625-1.445.325-.872.573-1.82.7-2.745.054-.394.121-.795.084-1.191-.057-.613-.477-1.154-.537-1.766-.16-.198-.275-.444-.482-.592-.214-.154-.484-.215-.738-.286-.22-.061-.448-.131-.676-.111-.302.027-.595.131-.875.25-.859.361-1.264.717-2.014 1.257-.306.294-.635.565-.916.882-.488.55-1.169 1.513-1.403 2.219-.126.38-.155.789-.173 1.189-.058 1.266.077 1.339.44 2.54.226.362.383.777.675 1.086.793.835 2.028 1.084 3.126 1.02.307-.019.617-.06.91-.156.3-.097.569-.278.853-.417.266-.165.552-.302.797-.496.189-.15.337-.343.496-.524.209-.238.422-.475.606-.732.642-.9 1.068-1.928 1.469-2.95.138-.422.537-1.58.603-2.04.036-.25-.008-.503-.013-.755-.004-.236-.011-.472-.016-.708-.022-.995.043-.493-.18-1.453-.29-.666-.161-.584-.704-1.043-.12-.1-.23-.239-.384-.266-.207-.037-.42.048-.627.086-.703.133-.636.192-1.409.61-.262.18-.531.35-.786.54-.627.469-1.209.983-1.776 1.52-.98.93-1.899 1.925-2.714 3.003-.315.483-1.093 1.589-1.264 2.18-.077.267-.042.559-.008.835.112.907.584 1.37 1.238 1.943.198.156.363.365.592.469.241.109.515.14.78.15.89.032 1.767-.427 2.498-.87.24-.145.457-.323.685-.485.5-.421 1.107-.903 1.54-1.393.489-.552.684-.956 1.012-1.605.41-.81.54-1.13.916-1.97.142-.358.296-.711.424-1.074.122-.345.216-.698.324-1.047.162-.53.427-1.367.558-1.92.051-.219.074-.443.123-.663.032-.145.08-.287.12-.431-.275-.229-.093-.158-.553-.006-.108.035-.217.068-.326.101-.113.035-.233.05-.34.1-.4.188-1.13.631-1.512.857-.32.213-.647.414-.958.639-1.348.974-2.577 2.104-3.707 3.323a27.66 27.66 0 00-1.365 1.565c-.426.535-.803 1.108-1.204 1.662-.322.556-.68 1.091-.965 1.667-.56 1.132-1.13 2.776-1.045 4.073.044.665.268 1.009.541 1.579.133.15.663.776.866.907.147.094.316.186.49.186.364 0 .865-.273 1.096-.548.085-.102.096-.247.143-.37.592-1.05.198-.157.409-1.23.055-.279.194-.541.221-.825.026-.266-.04-.533-.065-.799-.109-1.13-.026-.674-.383-1.76-.181-.232-.37-.458-.544-.695-.145-.198-.198-.486-.409-.611-.205-.122-.478-.099-.713-.059-.957.163-1.234.948-1.582 1.725-.241.977-.328 1.13-.374 2.168-.016.374-.068.76.022 1.124.067.273.261.501.434.723.116.148.244.313.422.373.168.057.354-.034.53-.05.134-.077.286-.128.4-.231.115-.103.2-.238.27-.375.31-.62.265-1.351.054-1.995-.104-.315-.269-.608-.404-.912-.177-.343-.333-.698-.532-1.029-.489-.81-.774-1.146-1.461-1.774-.214-.195-.398-.464-.676-.544-.74-.214-.98.288-1.39.718-.167.737-.346 1.25-.224 2.04.06.386.258.738.371 1.113.012.039.36 1.542.584 1.724.118.095.301-.031.452-.047.136-.563.057-.103.048-.881-.003-.271.047-.544.014-.814-.04-.314-.157-.614-.23-.923-.257-1.073-.31-1.361-.546-2.482-.098-.44-.501-2.259-.622-2.73-.184-.719-.286-1.181-.671-1.798-.324-.518-.536-.646-.984-1.037-.132-.136-.277-.261-.395-.41-.016-.019-.325-.566-.399-.617-.18-.126-.439.012-.563.145-.175.58.125-.452-.058.376-.033.145-.146.278-.13.426.015.155.168.266.218.414.064.192.284 1.46.3 1.55.298.874.423 1.312.824 2.167.305.652.812 1.543 1.203 2.153.18.28.3.626.57.82.234.166.56.125.841.187.082-.06.214-.082.244-.178.135-.426-.01-1.232-.092-1.62-.064-.301-.162-.593-.242-.89-.275-1.035-.063-.565-.534-1.356-.12-.09-.21-.25-.357-.27-.21-.029-.788.127-.908.402-.051.12.013.26.014.39.005 1.124-.057.251.095 1.57.218 1.326.457 2.648.68 3.973.082.492.179.982.24 1.478.089.716.098 1.308.123 2.009l.416-.22z" fill="#fde978" stroke="#fdcb2a" stroke-width=".165"/>
    <circle cx="-26.783" cy="327.567" r=".008" fill="#fde978" stroke="#fdcb2a" stroke-width=".265"/>
  </g>
</svg>