<svg xmlns="http://www.w3.org/2000/svg" viewBox="-100 -20 400 400" height="500px" width="500px">
  <rect class="rhino-box" ry="-20" x="-100" height="400" width="400" fill="none" />
  <path id="rhino" d="M-85.35 145.148c.282-6.261-3.522-5.642-6.523-11.416-3-5.774 2.565-9.032 4.893-12.503-.36-23.975 3.304-48.474 4.892-61.974 1.589-13.499 31.146-47.695 44.578-46.752 13.431.944 35.626-5.968 67.953-9.241 18.587 1.067 35.95 9.07 52.732 10.329 11.353.445 25.548-8.995 34.63-9.436 11.63-.564 21.88 4.912 33.323 12.289 7.807 3.01 16.417-3.065 22.098 1.164 6.82 5.077 16.012 18.34 21.323 25.744 1.244-4.475-.035-10.841 4.418-12.909 4.392 6.82 9.214 9.226 10 12.77 1.433 6.457.235 2.511-1.645 8.04l22.088-11.568c.814 5.363 2.426 11.045-1.087 14.678-5.182 2.572-9.126 2.667-12.503 1.63-2.463 2.003 1.651-.133 3.261 22.833 6.473 8.046 8.315 10.302 11.417 14.134 5.612.922 14.52-2.015 17.476-.543 0 0-6.882 7.416-8.778 14.677l2.718 2.719c15.401 3.481 30.31-6.372 44.034-9.786-8.928 14.283-24.213 27.413-36.967 34.249-2.27 10.586-6.93 14-10.873 19.57l-7.61-2.718c-6.015 3.55-9.106 3.202-12.504 3.262-11.203-8.006-20.135-11.047-26.715-17.426-7.026-6.813-11.466-17.051-16.231-28.782-3.39 1.63-5.242 3.261-11.96 4.892 2.849 28.978 7.61 31.168 11.416 46.752 5.724 4.51 10.197 9.268 11.416 14.678 0 0-2.383 7.425-26.908.066-12.391-17.335-23.175-36.718-39.958-47.905-1.747 16.225-7.886 25.862-13.047 36.967 2.406 3.228 5.458 6.336 3.806 10.328-9.423 3.388-18.846-.463-28.269-1.087-5.81-6.94 8.024-41.55 7.067-44.577-26.996 1.962-45.437 7.25-58.059 3.392-19.538-5.971-28.145-17.506-40.88-24.594 5.65 28.792 11.3 39.567 16.95 53.39 1.599 3.908 8.288 5.006 4.794 12.933-8.11 4.023-17.722.543-26.638.543-4.379-10.51-5.736-21.02-14.134-31.53-1.952 1.321-5.567 4.734-5.03 6.752 1.204 4.538-.03 10.735 3.494 13.97 3.76 3.451 1.746 10.265.449 10.265-5.098 4.506-24.23 2.64-27.619-.973-3.387-3.613-6.784-8.34-8.053-12.305 4.412-11.855 8.064-24.217 9.034-38.367-6.486-15.446-16.118-30.263-17.396-46.752-3.806 17.756-12.076 23.61-11.416 53.276 5.766 8.808 4.903 13.83.544 16.852z" fill="#c5c5c5"/>
  <path d="M218.22 108.425c4.395.34 12.836.642 9.002 5.284-3.834 4.641-5.744-2.586-9.003-5.284z" fill="#3f3131" stroke="#474242" stroke-width=".265"/>
  <path d="M232.184 145.625c2.29.842 5.702 3.648 3.808 5.046-2.098-1.433-5.047-2.611-3.808-5.046z" fill="#2d2424" stroke="#000" stroke-width=".265"/>
  <g id="glasses" class="rhino-icon" transform="matrix(-1 0 0 1 134.1 141.293)" fill="none" stroke="#12de2d">
    <ellipse ry="11.097" rx="7.59" cy="113.657" cx="-107.441" stroke-width="2.851"/>
    <path d="M-122.464 112.864c.831-2.44 2.182-1.46 7.022 2.515" stroke-width="1.465"/>
    <path d="M-73.992 112.29c-2.045-7.624-15.148-.558-22.48.973-2.674.559-1.941.501-2.674.559" stroke-width="2.465"/>
  </g>
  <g id="soccer" class="rhino-icon" transform="matrix(-1 0 0 1 186.782 112.914)">
    <ellipse cx="-22.793" cy="139.834" transform="scale(-1 1)" rx="23.021" ry="22.497" fill="#fafafa" stroke="#828282" stroke-width="1.265"/>
    <path d="M22.421 124.751l-8.96 2.757-5.169-3.79 6.203-4.653 8.615.173z" fill="#4e4e4e"/>
    <path d="M13.462 127.508l-.627 6.645c2.79 1.673 4.114 2.843 5.797 3.832 3.164-.362 2.877-.067 6.408-.492l2.58-7.716-5.199-5.026z" fill="none" stroke="#828282" stroke-width=".265"/>
    <path d="M12.835 134.153l-5.682 3.684-5.723-3.002.844-5.066c.953-2.779 2.517-4.027 3.94-5.629l2.078-.422 5.17 3.79z" fill="none" stroke="#828282" stroke-width=".265"/>
    <path d="M18.632 137.985l-3.88 8.014-7.13-.375-.47-7.787 5.683-3.684z" fill="#4e4e4e"/>
    <path d="M7.622 145.624l-4.316 5.91c-1.442-.509-6.018-13.383-1.876-16.699l5.723 3.002zM14.752 146l4.784 6.379-3.94 7.411-4.878-.75c-2.98-1.993-5.674-4.27-7.412-7.505l4.316-5.91z" fill="none" stroke="#828282" stroke-width=".265"/>
    <path d="M25.04 137.493l6.411 4.097-1.797 9.812-10.118.977-4.784-6.38 3.88-8.014z" fill="none" stroke="#828282" stroke-width=".265"/>
    <path d="M31.451 141.59l8.068-4.034-1.313-8.537-10.585.758-2.58 7.716z" fill="#4e4e4e"/>
    <path d="M38.206 129.019l1.22-4.41c-2.926-3.423-6.615-5.798-11.54-6.473l-4.776 1.102-.689 5.513 5.2 5.026z" fill="none" stroke="#828282" stroke-width=".265"/>
    <path d="M39.52 137.556l6.285 4.034c-.35-2.723.565-10.293-6.38-16.98l-1.22 4.409z" fill="none" stroke="#828282" stroke-width=".265"/>
    <path d="M29.654 151.402l7.05 4.26 4.504-2.063c2.745-3.397 3.832-7.623 4.597-12.009l-6.286-4.034-8.068 4.034z" fill="none" stroke="#828282" stroke-width=".265"/>
    <path d="M36.705 155.663l-2.346 3.846c-4.848 2.137-11.552 4.961-18.763.281l3.94-7.411 10.118-.977z" fill="#4e4e4e"/>
    <path d="M1.43 134.835l.844-5.066c-1.21 2.259-2.11 4.57-2.208 7.014z" fill="#4e4e4e" stroke="#464646" stroke-width=".265"/>
  </g>
  <g id="skate-4" class="rhino-icon" transform="translate(-27.265 74.728)">
    <path d="M-61.8 143.267l-4.315 16.872c.966 7.057 5.036 9.458 8.458 12.833 9.071 2.744 18.142 5.317 27.214.445 3.73-3.934 2.197-6.552.883-9.225l-3.512-4.54c-1.833-7.85.939-7.824.19-9.315z" fill="#f83f3f"/>
    <ellipse cx="-61.497" cy="170.534" rx="5.061" ry="4.907" fill="#4e4e4e" stroke="#828282" stroke-width="1.265"/>
    <ellipse ry="4.907" rx="5.061" cy="174.828" cx="-41.407" fill="#4e4e4e" stroke="#828282" stroke-width="1.265"/>
  </g>
  <g id="skate-3" class="rhino-icon" transform="translate(-27.702 71.23)">
    <path d="M-23.176 157.46l7.954 16.5c8.56 1.096 16.844 3.297 26.638-.543 0 0 2.17.486 1.785-5.302-.385-5.789-3.69-6.389-6.535-7.405l-2.079-7.64z" fill="#f83f3f"/>
    <ellipse cx="-8.895" cy="175.135" rx="5.061" ry="4.907" fill="#4e4e4e" stroke="#828282" stroke-width="1.265"/>
    <ellipse ry="4.907" rx="5.061" cy="173.908" cx="7.054" fill="#4e4e4e" stroke="#828282" stroke-width="1.265"/>
  </g>
  <g id="skate-2" class="rhino-icon" transform="translate(-153.384 115.342)">
    <path d="M79.583 153.392c-.242 6.406-3.425 13.075 1.961 19.481 9.593 1.553 19.5 5.3 28.269 1.087.334-2.463 2.97-4.147-3.806-10.328l5.202-7.644z" fill="#f83f3f"/>
    <ellipse cx="86.494" cy="172.374" rx="5.061" ry="4.907" fill="#4e4e4e" stroke="#828282" stroke-width="1.265"/>
    <ellipse ry="4.907" rx="5.061" cy="174.521" cx="101.523" fill="#4e4e4e" stroke="#828282" stroke-width="1.265"/>
  </g>
  <g id="skate-1" class="rhino-icon" transform="translate(-173.013 113.403)">
    <path d="M146.017 159.215l7.474 14.304c12.094 4.206 27.817 6.903 32.43.985 1.708-4.131-4.292-10.761-11.417-14.678l-1.586-8.557z" fill="#f83f3f"/>
    <ellipse cx="161.026" cy="174.215" rx="5.061" ry="4.907" fill="#4e4e4e" stroke="#828282" stroke-width="1.265"/>
    <ellipse ry="4.907" rx="5.061" cy="178.509" cx="178.202" fill="#4e4e4e" stroke="#828282" stroke-width="1.265"/>
  </g>
  <g id="helmet" class="rhino-icon" transform="translate(-141.028 180.394)">
    <path d="M194.39 27.332c-31.517 9.897-22.892 35.965-23.867 52.995l18.752 11.241s7.472-13.223 14.49-13.65c20.756 18.079 43.952 27.868 47.45 18.82 4.1-4.73 4.99-8.71 4.545-29.258-.444-20.548-29.854-50.046-61.37-40.148z" fill="#fb9a2f"/>
    <ellipse cx="183.891" cy="75.708" rx="3.527" ry="3.873" fill="#4e4e4e"/>
    <path d="M172.14 76.094c-2.373.762.217 17.556 1.828 35.328 3.226-12.901 17.706-22.598 15.836-24.087z" fill="none" stroke="#4e4e4e" stroke-width="2.265"/>
    <ellipse cx="189.472" cy="159.527" rx="7.149" ry="13.031" transform="rotate(-25.945)" fill="#fbc62f"/>
  </g>
</svg>